<mxfile host="app.diagrams.net" modified="2021-05-27T20:41:24.568Z" agent="5.0 (Windows)" etag="kcwQUFPUVezEtwAOnJUh" version="14.7.2" type="github">
  <diagram id="qy9EWmMD1HwXzlRcthMH" name="Page-1">
    <mxGraphModel dx="1564" dy="902" grid="1" gridSize="10" guides="1" tooltips="1" connect="1" arrows="1" fold="1" page="1" pageScale="1" pageWidth="827" pageHeight="1169" math="0" shadow="0">
      <root>
        <mxCell id="0" />
        <mxCell id="1" parent="0" />
        <mxCell id="YDDml-Z9Vrtt6Zy8maYf-1" value="" style="strokeWidth=2;html=1;shape=mxgraph.flowchart.database;whiteSpace=wrap;fillColor=#333333;" vertex="1" parent="1">
          <mxGeometry x="1330" y="470" width="190" height="310" as="geometry" />
        </mxCell>
        <mxCell id="YDDml-Z9Vrtt6Zy8maYf-10" value="Pile de Listes" style="swimlane;fontStyle=1;childLayout=stackLayout;horizontal=1;startSize=26;horizontalStack=0;resizeParent=1;resizeParentMax=0;resizeLast=0;collapsible=1;marginBottom=0;fillColor=#545454;" vertex="1" parent="1">
          <mxGeometry x="1355" y="580" width="140" height="156" as="geometry">
            <mxRectangle x="455" y="120" width="110" height="26" as="alternateBounds" />
          </mxGeometry>
        </mxCell>
        <mxCell id="YDDml-Z9Vrtt6Zy8maYf-11" value="Liste 0" style="text;align=left;verticalAlign=top;spacingLeft=4;spacingRight=4;overflow=hidden;rotatable=0;points=[[0,0.5],[1,0.5]];portConstraint=eastwest;labelBorderColor=none;labelBackgroundColor=none;strokeColor=#000000;fillColor=#545454;" vertex="1" parent="YDDml-Z9Vrtt6Zy8maYf-10">
          <mxGeometry y="26" width="140" height="26" as="geometry" />
        </mxCell>
        <mxCell id="YDDml-Z9Vrtt6Zy8maYf-12" value="Liste 1" style="text;fillColor=#545454;align=left;verticalAlign=middle;spacingLeft=4;spacingRight=4;overflow=hidden;rotatable=0;points=[[0,0.5],[1,0.5]];portConstraint=eastwest;strokeColor=#000000;" vertex="1" parent="YDDml-Z9Vrtt6Zy8maYf-10">
          <mxGeometry y="52" width="140" height="26" as="geometry" />
        </mxCell>
        <mxCell id="YDDml-Z9Vrtt6Zy8maYf-13" value="Liste 2" style="text;fillColor=#545454;align=left;verticalAlign=top;spacingLeft=4;spacingRight=4;overflow=hidden;rotatable=0;points=[[0,0.5],[1,0.5]];portConstraint=eastwest;strokeColor=#000000;" vertex="1" parent="YDDml-Z9Vrtt6Zy8maYf-10">
          <mxGeometry y="78" width="140" height="26" as="geometry" />
        </mxCell>
        <mxCell id="YDDml-Z9Vrtt6Zy8maYf-15" value="Liste 3" style="text;fillColor=#545454;align=left;verticalAlign=middle;spacingLeft=4;spacingRight=4;overflow=hidden;rotatable=0;points=[[0,0.5],[1,0.5]];portConstraint=eastwest;strokeColor=#000000;" vertex="1" parent="YDDml-Z9Vrtt6Zy8maYf-10">
          <mxGeometry y="104" width="140" height="26" as="geometry" />
        </mxCell>
        <mxCell id="YDDml-Z9Vrtt6Zy8maYf-16" value="Liste 4" style="text;fillColor=#545454;align=left;verticalAlign=middle;spacingLeft=4;spacingRight=4;overflow=hidden;rotatable=0;points=[[0,0.5],[1,0.5]];portConstraint=eastwest;strokeColor=#000000;" vertex="1" parent="YDDml-Z9Vrtt6Zy8maYf-10">
          <mxGeometry y="130" width="140" height="26" as="geometry" />
        </mxCell>
        <mxCell id="YDDml-Z9Vrtt6Zy8maYf-14" value="&lt;font style=&quot;font-size: 14px&quot;&gt;&lt;b&gt;Data-Base&lt;/b&gt;&lt;/font&gt;" style="text;html=1;strokeColor=none;fillColor=#545454;align=center;verticalAlign=middle;whiteSpace=wrap;rounded=0;" vertex="1" parent="1">
          <mxGeometry x="1387.5" y="510" width="75" height="20" as="geometry" />
        </mxCell>
        <mxCell id="YDDml-Z9Vrtt6Zy8maYf-41" style="edgeStyle=orthogonalEdgeStyle;rounded=0;orthogonalLoop=1;jettySize=auto;html=1;exitX=0;exitY=0;exitDx=0;exitDy=129.5;exitPerimeter=0;entryX=0.5;entryY=0;entryDx=0;entryDy=0;fontSize=11;fontColor=#4F4F4F;" edge="1" parent="1" source="YDDml-Z9Vrtt6Zy8maYf-17" target="YDDml-Z9Vrtt6Zy8maYf-40">
          <mxGeometry relative="1" as="geometry" />
        </mxCell>
        <mxCell id="YDDml-Z9Vrtt6Zy8maYf-17" value="Module SoproLab" style="shape=module;align=left;spacingLeft=20;align=center;verticalAlign=top;labelBackgroundColor=none;fontColor=#000000;strokeColor=#000000;fillColor=#545454;jettyWidth=42;jettyHeight=37;fontStyle=1;fontSize=20;" vertex="1" parent="1">
          <mxGeometry x="830" y="538" width="340" height="174" as="geometry" />
        </mxCell>
        <mxCell id="YDDml-Z9Vrtt6Zy8maYf-18" value="&lt;h1 itemprop=&quot;name&quot; style=&quot;font-size: 11px&quot; align=&quot;center&quot;&gt;Capteur de distance &lt;br&gt;&lt;/h1&gt;&lt;h1 itemprop=&quot;name&quot; style=&quot;font-size: 11px&quot; align=&quot;center&quot;&gt;Ultrason V1 SoproLab&lt;/h1&gt;" style="html=1;labelBackgroundColor=none;fontSize=20;fontColor=#000000;strokeColor=#000000;fillColor=#545454;verticalAlign=middle;align=center;" vertex="1" parent="1">
          <mxGeometry x="630" y="549" width="150" height="70" as="geometry" />
        </mxCell>
        <mxCell id="YDDml-Z9Vrtt6Zy8maYf-21" value="" style="line;strokeWidth=2;html=1;labelBackgroundColor=none;fontSize=11;fontColor=#000000;fillColor=#545454;verticalAlign=middle;" vertex="1" parent="1">
          <mxGeometry x="780" y="583" width="50" height="10" as="geometry" />
        </mxCell>
        <mxCell id="YDDml-Z9Vrtt6Zy8maYf-26" value="" style="strokeWidth=2;html=1;shape=mxgraph.flowchart.annotation_2;align=left;labelPosition=right;pointerEvents=1;labelBackgroundColor=none;fontSize=11;fontColor=#000000;fillColor=#545454;rotation=-180;" vertex="1" parent="1">
          <mxGeometry x="570" y="510" width="60" height="154" as="geometry" />
        </mxCell>
        <mxCell id="YDDml-Z9Vrtt6Zy8maYf-28" value="&lt;font size=&quot;1&quot;&gt;&lt;b style=&quot;font-size: 20px&quot;&gt;Object&lt;/b&gt;&lt;/font&gt;" style="shape=cube;whiteSpace=wrap;html=1;boundedLbl=1;backgroundOutline=1;darkOpacity=0.05;darkOpacity2=0.1;labelBackgroundColor=none;fontSize=11;strokeColor=#000000;verticalAlign=middle;fontColor=#4F4F4F;fillColor=#EBEBEB;" vertex="1" parent="1">
          <mxGeometry x="30" y="410" width="210" height="320" as="geometry" />
        </mxCell>
        <mxCell id="YDDml-Z9Vrtt6Zy8maYf-29" value="" style="endArrow=none;dashed=1;html=1;dashPattern=1 3;strokeWidth=2;fontSize=11;fontColor=#000000;entryX=1.049;entryY=0.678;entryDx=0;entryDy=0;entryPerimeter=0;" edge="1" parent="1" target="YDDml-Z9Vrtt6Zy8maYf-26">
          <mxGeometry width="50" height="50" relative="1" as="geometry">
            <mxPoint x="270" y="560" as="sourcePoint" />
            <mxPoint x="560" y="560" as="targetPoint" />
          </mxGeometry>
        </mxCell>
        <mxCell id="YDDml-Z9Vrtt6Zy8maYf-30" value="" style="shape=singleArrow;direction=west;whiteSpace=wrap;html=1;labelBackgroundColor=none;fontSize=11;fontColor=#000000;strokeColor=#000000;fillColor=#545454;verticalAlign=middle;arrowWidth=0.08431372549019518;arrowSize=1;" vertex="1" parent="1">
          <mxGeometry x="220" y="540" width="50" height="40" as="geometry" />
        </mxCell>
        <mxCell id="YDDml-Z9Vrtt6Zy8maYf-31" value="" style="endArrow=none;dashed=1;html=1;dashPattern=1 3;strokeWidth=2;fontSize=11;fontColor=#000000;entryX=1.049;entryY=0.678;entryDx=0;entryDy=0;entryPerimeter=0;" edge="1" parent="1">
          <mxGeometry width="50" height="50" relative="1" as="geometry">
            <mxPoint x="220" y="604.82" as="sourcePoint" />
            <mxPoint x="517.06" y="604.4080000000002" as="targetPoint" />
          </mxGeometry>
        </mxCell>
        <mxCell id="YDDml-Z9Vrtt6Zy8maYf-32" value="" style="shape=singleArrow;direction=east;whiteSpace=wrap;html=1;labelBackgroundColor=none;fontSize=11;fontColor=#000000;strokeColor=#000000;fillColor=#545454;verticalAlign=middle;arrowWidth=0.08431372549019518;arrowSize=1;" vertex="1" parent="1">
          <mxGeometry x="520" y="585" width="50" height="40" as="geometry" />
        </mxCell>
        <mxCell id="YDDml-Z9Vrtt6Zy8maYf-33" value="&lt;b&gt;Ultra-son envoyées&lt;br&gt;&lt;/b&gt;" style="text;html=1;strokeColor=none;fillColor=none;align=center;verticalAlign=middle;whiteSpace=wrap;rounded=0;labelBackgroundColor=none;fontSize=11;fontColor=#4F4F4F;" vertex="1" parent="1">
          <mxGeometry x="358" y="529" width="111" height="20" as="geometry" />
        </mxCell>
        <mxCell id="YDDml-Z9Vrtt6Zy8maYf-34" value="&lt;b&gt;Ultra-son reçues&lt;br&gt;&lt;/b&gt;" style="text;html=1;strokeColor=none;fillColor=none;align=center;verticalAlign=middle;whiteSpace=wrap;rounded=0;labelBackgroundColor=none;fontSize=11;fontColor=#4F4F4F;" vertex="1" parent="1">
          <mxGeometry x="358" y="615" width="111" height="20" as="geometry" />
        </mxCell>
        <mxCell id="YDDml-Z9Vrtt6Zy8maYf-40" value="Object" style="html=1;labelBackgroundColor=none;fontSize=11;fontColor=#4F4F4F;strokeColor=#000000;verticalAlign=middle;fillColor=#545454;" vertex="1" parent="1">
          <mxGeometry x="450" y="870" width="1110" height="640" as="geometry" />
        </mxCell>
      </root>
    </mxGraphModel>
  </diagram>
</mxfile>
